<svg id="Logo" xmlns="http://www.w3.org/2000/svg" viewBox="0 0 529.9 283.98"><defs><style>.cls-1{fill:#e92b2a;}</style></defs><g id="Logo-2" data-name="Logo"><polygon points="92.75 92.24 97.97 85.75 107.78 102.83 114.89 102.83 101.83 80.69 113 66.53 105.85 66.53 92.93 83.02 92.75 83.02 92.75 66.53 86.31 66.53 86.31 102.83 92.75 102.83 92.75 92.24"/><path d="M127.7,103.49c6.79,0,13-5.24,13-14.27s-6.18-14.32-13-14.32-13,5.24-13,14.32S120.91,103.49,127.7,103.49Zm0-23.38c4,0,6.39,3.65,6.39,9.11s-2.39,9-6.39,9-6.39-3.59-6.39-9S123.7,80.11,127.7,80.11Z"/><path d="M143.7,95.5a7.63,7.63,0,0,0,8.06,8c3.22,0,6-1.6,8.46-3.68h.17l.49,3h5.24V86.69c0-7.6-3.35-11.79-10.17-11.79a21.2,21.2,0,0,0-11.18,3.57l2.35,4.26c2.4-1.46,4.95-2.68,7.66-2.68,3.68,0,4.86,2.44,4.95,5.37C148.54,86.62,143.7,89.66,143.7,95.5Zm16-6.11v6.13c-2,1.87-3.71,3-5.93,3s-3.93-1-3.93-3.46C149.87,92.26,152.34,90.33,159.73,89.39Z"/><path d="M177.79,103.49a9,9,0,0,0,3.38-.55l-.8-4.78a3.78,3.78,0,0,1-1,.11c-.67,0-1.38-.55-1.38-2.13V63.62H171.6V95.81C171.6,100.56,173.26,103.49,177.79,103.49Z"/><rect x="183.92" y="75.56" width="6.39" height="27.26"/><path d="M187.14,70.79a3.63,3.63,0,1,0-3.95-3.62A3.68,3.68,0,0,0,187.14,70.79Z"/><path d="M197.43,93.64c0,5.88,2.33,9.85,8.61,9.85a17.69,17.69,0,0,0,5.58-1l-1.09-4.7a8.58,8.58,0,0,1-2.84.62c-2.62,0-3.87-1.58-3.87-4.79v-13h7V75.56h-7V68.13h-5.3l-.76,7.43-4.22.29v4.8h3.89Z"/><path d="M218.4,70.79a3.63,3.63,0,1,0-4-3.62A3.67,3.67,0,0,0,218.4,70.79Z"/><rect x="215.18" y="75.56" width="6.39" height="27.26"/><path d="M238.68,103.49c6.8,0,13-5.24,13-14.27s-6.17-14.32-13-14.32-13,5.24-13,14.32S231.89,103.49,238.68,103.49Zm0-23.38c4,0,6.4,3.65,6.4,9.11s-2.4,9-6.4,9-6.39-3.59-6.39-9S234.69,80.11,238.68,80.11Z"/><path d="M262.42,83.78c2.24-2.22,3.82-3.4,6.21-3.4,3,0,4.25,1.69,4.25,6.17v16.28h6.39V85.73c0-6.88-2.55-10.83-8.39-10.83-3.73,0-6.51,2-8.95,4.35h-.18l-.49-3.69H256v27.27h6.4Z"/><path d="M295.24,107.78c0,4.77,4.83,7.1,11.34,7.1,8.9,0,14.54-4.24,14.54-9.61,0-4.71-3.46-6.73-10-6.73h-4.85c-3.31,0-4.42-.93-4.42-2.46a3.12,3.12,0,0,1,1.34-2.61,10.32,10.32,0,0,0,3.68.72c5.77,0,10.37-3.24,10.37-9.3a7.18,7.18,0,0,0-1.56-4.58h5V75.56h-9.75a12.2,12.2,0,0,0-4-.66c-5.7,0-10.77,3.53-10.77,9.79a9.07,9.07,0,0,0,3.6,7.19v.22a6.6,6.6,0,0,0-3,5.09,5.17,5.17,0,0,0,2.47,4.55V102C296.66,103.47,295.24,105.48,295.24,107.78Zm11.65-28.46c2.67,0,4.73,2,4.73,5.37s-2.11,5.48-4.73,5.48-4.73-2-4.73-5.48S304.23,79.32,306.89,79.32Zm-4.17,23.88a14.6,14.6,0,0,0,3.68.38h3.74c3.12,0,4.81.62,4.81,2.73,0,2.35-3,4.42-7.39,4.42s-6.95-1.44-6.95-3.93A4.51,4.51,0,0,1,302.72,103.2Z"/><path d="M336.3,98.54c-4.39,0-7.5-2.75-8-7.59h17.3a16.13,16.13,0,0,0,.28-3.11c0-7.61-3.88-12.94-11.25-12.94-6.42,0-12.57,5.46-12.57,14.32s5.91,14.27,13.43,14.27a17,17,0,0,0,9.35-2.95l-2.18-4A11.64,11.64,0,0,1,336.3,98.54Zm-1.57-18.69c3.73,0,5.59,2.55,5.59,6.75H328.2C328.76,82.22,331.55,79.85,334.73,79.85Z"/><path d="M348.54,107.78c0,4.77,4.83,7.1,11.34,7.1,8.9,0,14.54-4.24,14.54-9.61,0-4.71-3.46-6.73-10-6.73h-4.85c-3.31,0-4.42-.93-4.42-2.46a3.14,3.14,0,0,1,1.33-2.61,10.41,10.41,0,0,0,3.69.72c5.77,0,10.37-3.24,10.37-9.3A7.18,7.18,0,0,0,369,80.31h5V75.56h-9.75a12.2,12.2,0,0,0-4-.66c-5.7,0-10.77,3.53-10.77,9.79a9,9,0,0,0,3.6,7.19v.22a6.6,6.6,0,0,0-3,5.09,5.18,5.18,0,0,0,2.46,4.55V102C350,103.47,348.54,105.48,348.54,107.78Zm11.65-28.46c2.67,0,4.73,2,4.73,5.37s-2.11,5.48-4.73,5.48-4.73-2-4.73-5.48S357.53,79.32,360.19,79.32ZM356,103.2a14.6,14.6,0,0,0,3.68.38h3.74c3.12,0,4.81.62,4.81,2.73,0,2.35-3,4.42-7.39,4.42s-6.95-1.44-6.95-3.93A4.51,4.51,0,0,1,356,103.2Z"/><path d="M388.76,103.49a17,17,0,0,0,9.35-2.95l-2.18-4a11.64,11.64,0,0,1-6.33,2c-4.39,0-7.5-2.75-8-7.59h17.3a16.13,16.13,0,0,0,.28-3.11c0-7.61-3.88-12.94-11.25-12.94-6.42,0-12.57,5.46-12.57,14.32S381.23,103.49,388.76,103.49ZM388,79.85c3.73,0,5.59,2.55,5.59,6.75H381.5C382.06,82.22,384.85,79.85,388,79.85Z"/><path d="M426.83,102.83V85.73c0-6.88-2.56-10.83-8.39-10.83-3.73,0-6.51,2-8.95,4.35h-.18l-.49-3.69h-5.24v27.27H410v-19c2.24-2.22,3.82-3.4,6.21-3.4,3,0,4.24,1.69,4.24,6.17v16.28Z"/><path d="M84.14,154a7.64,7.64,0,0,0,8.06,8c3.22,0,6-1.6,8.46-3.69h.18l.48,3h5.24V145.22c0-7.59-3.35-11.79-10.16-11.79A21.21,21.21,0,0,0,85.21,137l2.35,4.26c2.4-1.46,5-2.69,7.66-2.69,3.69,0,4.86,2.45,5,5.38C89,145.16,84.14,148.2,84.14,154Zm16-6.11v6.13c-2,1.86-3.71,2.95-5.93,2.95s-3.93-1-3.93-3.46C90.31,150.8,92.78,148.86,100.17,147.93Z"/><path d="M135.3,161.36V144.27c0-6.88-2.55-10.84-8.39-10.84-3.73,0-6.51,2-9,4.36h-.18l-.48-3.69h-5.24v27.26h6.39v-19c2.24-2.23,3.82-3.4,6.22-3.4,3,0,4.24,1.69,4.24,6.17v16.27Z"/><path d="M137.66,139.19h3.88v13c0,5.89,2.33,9.86,8.62,9.86a17.67,17.67,0,0,0,5.57-1l-1.09-4.71a8.58,8.58,0,0,1-2.84.62c-2.62,0-3.86-1.57-3.86-4.78v-13h6.95V134.1h-6.95v-7.44h-5.31l-.75,7.44-4.22.29Z"/><path d="M162.51,122.09a3.63,3.63,0,1,0,4,3.62A3.66,3.66,0,0,0,162.51,122.09Z"/><rect x="159.29" y="134.1" width="6.39" height="27.26"/><path d="M193.93,161.36v-19c2.11-2.29,4-3.4,5.7-3.4,2.87,0,4.2,1.69,4.2,6.17v16.27h6.39V144.27c0-6.88-2.66-10.84-8.41-10.84-3.46,0-6.16,2.11-8.77,4.89-1.25-3.06-3.53-4.89-7.53-4.89-3.41,0-6.06,2-8.37,4.39H177l-.49-3.72h-5.24v27.26h6.39v-19c2.11-2.29,4-3.4,5.71-3.4,2.86,0,4.19,1.69,4.19,6.17v16.27Z"/><path d="M222,134.1h-6.4v17.1c0,6.88,2.56,10.83,8.39,10.83,3.73,0,6.38-1.84,8.77-4.69h.18l.49,4h5.24V134.1h-6.4v18.67c-2.06,2.67-3.64,3.78-6,3.78-3,0-4.24-1.69-4.24-6.18Z"/><path d="M255.11,145.33c-3-1.08-5.7-1.9-5.7-4.06,0-1.71,1.3-3,4-3a10.18,10.18,0,0,1,6,2.38l2.93-3.93a14.69,14.69,0,0,0-9.06-3.27c-6.1,0-9.92,3.42-9.92,8.15,0,4.55,4.08,6.61,7.66,7.95,2.9,1.11,5.86,2.13,5.86,4.42,0,1.86-1.4,3.26-4.38,3.26-2.76,0-5.1-1.15-7.52-3l-3,4.06a17.07,17.07,0,0,0,10.33,3.8c6.88,0,10.59-3.78,10.59-8.46C262.93,148.49,258.8,146.71,255.11,145.33Z"/><path d="M272.74,162a9,9,0,0,0,3.37-.56l-.8-4.77a3.78,3.78,0,0,1-1,.11c-.66,0-1.37-.55-1.37-2.13V122.16h-6.4v32.19C266.54,159.1,268.21,162,272.74,162Z"/><rect x="278.87" y="134.1" width="6.39" height="27.26"/><path d="M278.13,125.71a4,4,0,1,0,3.95-3.62A3.68,3.68,0,0,0,278.13,125.71Z"/><path d="M321.38,133.43c-3.46,0-6.16,2.11-8.77,4.89-1.25-3.06-3.53-4.89-7.52-4.89-3.42,0-6.07,2-8.37,4.39h-.18l-.49-3.72h-5.24v27.26h6.39v-19c2.11-2.29,4-3.4,5.71-3.4,2.86,0,4.2,1.69,4.2,6.17v16.27h6.39v-19c2.11-2.29,4-3.4,5.71-3.4,2.86,0,4.19,1.69,4.19,6.17v16.27h6.39V144.27C329.79,137.39,327.13,133.43,321.38,133.43Z"/><path d="M338.44,122.09a3.63,3.63,0,1,0,3.95,3.62A3.66,3.66,0,0,0,338.44,122.09Z"/><rect x="335.22" y="134.1" width="6.39" height="27.26"/><path d="M358.05,145.33c-3-1.08-5.71-1.9-5.71-4.06,0-1.71,1.3-3,4-3a10.18,10.18,0,0,1,6,2.38l2.93-3.93a14.69,14.69,0,0,0-9-3.27c-6.11,0-9.93,3.42-9.93,8.15,0,4.55,4.09,6.61,7.66,7.95,2.91,1.11,5.86,2.13,5.86,4.42,0,1.86-1.4,3.26-4.37,3.26-2.77,0-5.11-1.15-7.53-3l-3,4.06a17,17,0,0,0,10.32,3.8c6.88,0,10.59-3.78,10.59-8.46C365.86,148.49,361.73,146.71,358.05,145.33Z"/><path d="M382.47,156.81c-4.24,0-7.24-3.59-7.24-9.06s3-9.1,7.44-9.1a6.66,6.66,0,0,1,4.53,2l3.11-4.15a11.68,11.68,0,0,0-8-3.07c-7.26,0-13.68,5.24-13.68,14.32S374.37,162,381.8,162a13.51,13.51,0,0,0,8.91-3.35l-2.6-4.22A9,9,0,0,1,382.47,156.81Z"/><path d="M409.15,133.43c-3.73,0-6.44,2-8.73,4.13l.27-5.26V122.16h-6.4v39.2h6.4v-19c2.24-2.23,3.82-3.4,6.21-3.4,3,0,4.24,1.69,4.24,6.17v16.27h6.4V144.27C417.54,137.39,415,133.43,409.15,133.43Z"/><path d="M434.33,133.43c-6.42,0-12.56,5.47-12.56,14.32,0,9,5.9,14.28,13.43,14.28a16.92,16.92,0,0,0,9.34-2.95l-2.17-4a11.6,11.6,0,0,1-6.33,2c-4.4,0-7.5-2.75-8-7.59h17.31a17,17,0,0,0,.28-3.11C445.59,138.76,441.7,133.43,434.33,133.43Zm-6.39,11.7c.55-4.37,3.35-6.74,6.52-6.74,3.73,0,5.6,2.55,5.6,6.74Z"/><path d="M464.87,133.43c-3.73,0-6.5,2-8.95,4.36h-.17l-.49-3.69H450v27.26h6.39v-19c2.24-2.23,3.82-3.4,6.22-3.4,2.95,0,4.24,1.69,4.24,6.17v16.27h6.39V144.27C473.26,137.39,470.71,133.43,464.87,133.43Z"/><path d="M111.91,194.37c0-8.1-5.81-10.77-13.36-10.77H86.32v36.3h6.43V205.71h5.54l7.81,14.19h7.23l-8.68-15.13C109,203.25,111.91,199.88,111.91,194.37Zm-19.16-5.62h5.13c5,0,7.68,1.45,7.68,5.62s-2.71,6.19-7.68,6.19H92.75Z"/><path d="M127.61,192a21.24,21.24,0,0,0-11.19,3.58l2.36,4.26c2.39-1.47,5-2.69,7.66-2.69,3.68,0,4.86,2.44,4.95,5.37-11.19,1.2-16,4.25-16,10.08a7.64,7.64,0,0,0,8.06,8c3.22,0,6-1.6,8.45-3.69h.18l.49,3h5.24V203.76C137.78,196.17,134.43,192,127.61,192Zm3.78,20.63c-2,1.86-3.71,3-5.93,3s-3.93-1.06-3.93-3.46c0-2.76,2.46-4.69,9.86-5.62Z"/><path d="M154.22,203.87c-2.95-1.09-5.7-1.91-5.7-4.06,0-1.71,1.3-3,4-3a10.24,10.24,0,0,1,6,2.37l2.93-3.92A14.63,14.63,0,0,0,152.4,192c-6.1,0-9.92,3.42-9.92,8.15,0,4.55,4.08,6.6,7.66,7.95,2.91,1.11,5.86,2.13,5.86,4.42,0,1.86-1.4,3.26-4.37,3.26-2.77,0-5.11-1.16-7.53-3l-3,4.06a17.07,17.07,0,0,0,10.33,3.8c6.88,0,10.59-3.78,10.59-8.46C162,207,157.91,205.25,154.22,203.87Z"/><path d="M177.59,203.87c-3-1.09-5.71-1.91-5.71-4.06,0-1.71,1.3-3,4-3a10.29,10.29,0,0,1,6,2.37l2.93-3.92a14.68,14.68,0,0,0-9.06-3.27c-6.11,0-9.93,3.42-9.93,8.15,0,4.55,4.09,6.6,7.66,7.95,2.91,1.11,5.86,2.13,5.86,4.42,0,1.86-1.39,3.26-4.37,3.26-2.76,0-5.11-1.16-7.53-3l-3,4.06a17,17,0,0,0,10.32,3.8c6.88,0,10.59-3.78,10.59-8.46C185.4,207,181.27,205.25,177.59,203.87Z"/><path d="M192.24,180.63a3.63,3.63,0,1,0,3.95,3.62A3.65,3.65,0,0,0,192.24,180.63Z"/><rect x="189.02" y="192.64" width="6.39" height="27.26"/><path d="M211.84,203.87c-3-1.09-5.7-1.91-5.7-4.06,0-1.71,1.3-3,4-3a10.24,10.24,0,0,1,6,2.37l2.93-3.92A14.63,14.63,0,0,0,210,192c-6.1,0-9.92,3.42-9.92,8.15,0,4.55,4.08,6.6,7.66,7.95,2.9,1.11,5.86,2.13,5.86,4.42,0,1.86-1.4,3.26-4.38,3.26-2.76,0-5.1-1.16-7.52-3l-3,4.06a17.07,17.07,0,0,0,10.33,3.8c6.88,0,10.59-3.78,10.59-8.46C219.66,207,215.53,205.25,211.84,203.87Z"/><path d="M253.84,192c-3.46,0-6.16,2.11-8.77,4.89-1.25-3.07-3.53-4.89-7.52-4.89-3.42,0-6.06,2-8.37,4.39H229l-.49-3.72h-5.24V219.9h6.4V200.85c2.1-2.28,4-3.4,5.7-3.4,2.87,0,4.2,1.69,4.2,6.18V219.9H246V200.85c2.11-2.28,4-3.4,5.71-3.4,2.86,0,4.19,1.69,4.19,6.18V219.9h6.4V202.81C262.26,195.92,259.59,192,253.84,192Z"/><path d="M284.27,211.31c-2.07,2.66-3.64,3.77-6,3.77-3,0-4.24-1.68-4.24-6.17V192.64H267.6v17.09c0,6.88,2.55,10.84,8.39,10.84,3.73,0,6.37-1.85,8.77-4.69h.18l.48,4h5.24V192.64h-6.39Z"/><path d="M307.14,203.87c-2.95-1.09-5.7-1.91-5.7-4.06,0-1.71,1.3-3,4-3a10.24,10.24,0,0,1,6,2.37l2.93-3.92a14.63,14.63,0,0,0-9.06-3.27c-6.1,0-9.92,3.42-9.92,8.15,0,4.55,4.09,6.6,7.66,7.95,2.91,1.11,5.86,2.13,5.86,4.42,0,1.86-1.4,3.26-4.37,3.26-2.77,0-5.11-1.16-7.53-3l-3,4.06a17,17,0,0,0,10.32,3.8c6.88,0,10.59-3.78,10.59-8.46C315,207,310.83,205.25,307.14,203.87Z"/><rect class="cls-1" x="56.64" y="56.78" width="12.11" height="56.64"/><rect class="cls-1" x="56.64" y="170.71" width="12.11" height="56.64"/></g></svg>